<mxfile host="app.diagrams.net" modified="2022-03-15T14:12:31.124Z" agent="5.0 (Macintosh; Intel Mac OS X 10_15_7) AppleWebKit/537.36 (KHTML, like Gecko) Chrome/99.0.4844.51 Safari/537.36" etag="peC1VZ7maNCO2ad1aMmG" version="17.1.2" type="github">
  <diagram name="Page-1" id="c9db0220-8083-56f3-ca83-edcdcd058819">
    <mxGraphModel dx="1455" dy="906" grid="1" gridSize="10" guides="1" tooltips="1" connect="1" arrows="1" fold="1" page="1" pageScale="1.5" pageWidth="826" pageHeight="1169" background="none" math="0" shadow="0">
      <root>
        <mxCell id="0" style=";html=1;" />
        <mxCell id="1" style=";html=1;" parent="0" />
        <mxCell id="l2089S-du-5APALcaX4G-10" value="" style="rounded=0;whiteSpace=wrap;html=1;labelBackgroundColor=#EDEDED;fontSize=33;fontColor=#FFFFFF;fillColor=#EDEDED;" vertex="1" parent="1">
          <mxGeometry x="44" y="160" width="1150" height="1360" as="geometry" />
        </mxCell>
        <mxCell id="3d76a8aef4d5c911-1" value="" style="html=1;shadow=0;dashed=0;shape=mxgraph.bootstrap.rect;fillColor=#233249;strokeColor=none;whiteSpace=wrap;rounded=0;fontSize=12;fontColor=#000000;align=center;" parent="1" vertex="1">
          <mxGeometry x="40" y="80" width="1150" height="80" as="geometry" />
        </mxCell>
        <mxCell id="3d76a8aef4d5c911-2" value="" style="html=1;shadow=0;dashed=0;fillColor=#EA5145;strokeColor=none;shape=mxgraph.bootstrap.rect;fontColor=#999999;fontSize=14;whiteSpace=wrap;" parent="3d76a8aef4d5c911-1" vertex="1">
          <mxGeometry width="220.9606986899563" height="80" as="geometry" />
        </mxCell>
        <mxCell id="3d76a8aef4d5c911-10" value="&lt;font color=&quot;#ffffff&quot; style=&quot;font-size: 33px&quot;&gt;Cart&lt;/font&gt;" style="html=1;shadow=0;dashed=0;fillColor=none;strokeColor=none;shape=mxgraph.bootstrap.rect;fontColor=#999999;whiteSpace=wrap;" parent="3d76a8aef4d5c911-1" vertex="1">
          <mxGeometry x="1049.375" y="13.773333333333333" width="100.62499999999999" height="52.459016393442624" as="geometry" />
        </mxCell>
        <mxCell id="l2089S-du-5APALcaX4G-3" value="" style="html=1;verticalLabelPosition=bottom;align=center;labelBackgroundColor=#ffffff;verticalAlign=top;strokeWidth=2;strokeColor=#0080F0;shadow=0;dashed=0;shape=mxgraph.ios7.icons.shopping_cart;fontColor=#FF3333;" vertex="1" parent="3d76a8aef4d5c911-1">
          <mxGeometry x="1025" y="20.33071038251366" width="29.999999999999996" height="39.34426229508196" as="geometry" />
        </mxCell>
        <mxCell id="l2089S-du-5APALcaX4G-2" value="4" style="text;html=1;resizable=0;autosize=1;align=center;verticalAlign=middle;points=[];rounded=0;fontColor=#FF3333;" vertex="1" parent="3d76a8aef4d5c911-1">
          <mxGeometry x="1029.9598253275108" y="26.674754098360655" width="20" height="20" as="geometry" />
        </mxCell>
        <mxCell id="l2089S-du-5APALcaX4G-4" value="" style="shape=image;verticalLabelPosition=bottom;labelBackgroundColor=default;verticalAlign=top;aspect=fixed;imageAspect=0;image=data:image/png,iVBORw0KGgoAAAANSUhEUgAAAMgAAAAzCAYAAADSDUdEAAAHQ0lEQVR4Ae3dA5Dk6hbA8VPv2rbtubZt27Zt27Zt27ZWM7P2ztaYrWD2/R9vbtVUktNJp4P+V/120hnj1Ndfo1amTZv2BdyysAkkppZGKzT9BgnR5rgBn2AEWpGDgUpnIIdWNOItnIZFIBUyAnHLRgFdmIAf8TAOwGyQcvgZEBsbQ2JoPXRB06+QEByG79AJC3GrgAacDgnZcCSpPtTjSswR9oBYMR2QDdENTV9AAvgHrkMLktQUHJDhAXHWizewWJpXkJ2Rh6ZPIQEcgRYktX68lOKrWNryuCONK8j+yEPTq5AA3kRa+jj9K4iqYZjPbUA+T9AKchQMaHoFEsAfSFv311aQv9WMJZK+gpwOA5oeggTwK9JYEXW1FeRvtWDBpO5BLoINTfdBAngRae5HSJnGIY0NT+IKcgss+M3GlZAAdoaFcsqhCcPwBV7Hw3gQD+BBAAOf4zI49nifR/EmvsMYdKEffitgGUgZnsIoNAygHg0B1Ps8X+94ORJT0I4cbJTbw0laQe6GJhuXQwIaB01teAP7YS5IFUyHnfCNYrhvg6TMfNged+B39EFTHkskYQV5CpoMnAIJ6CT4rRuXQmLmVBiKRxSk2Zy4CZ3w21vaFWQTSIRegKYSjo34TrCxmBcSU6/CqxZIRsyCb+GnXswY1xXkA2gq4EBICFZCCV5NwgyQGNsQBtzKYzZIhrwDP50XxwH5FJoK2BUSkjvhVREbQhKgC24ZWBOSMWPg1Y9x26T/BE292BISomGah6wkwFS4ZWJrSMbsDQtutcdpQH6Hph6sDwlZJ9wysS0kIcbCrX7sD8mgCXCrhJWqfRVrOjRCUzvqICFbEwbcaoYkyDgfA7IfJIOegFfHVHNAZsdIaGrF0pAKOApe/QBJkBa4ZWJLSIUsju1xNE7D5bgR1w/gBpfz8Hgf7/dzHl+Kd+HVTdV6RuE8mAhNk7EUpEJuh1cPQhJiOvTCrVLIq/E+eB2j0YUiLCS156uxB1kCk6FpEuaKwf0Gp0ESYn/YcCuHGSEBzItn0Y609UnUdxQuizZoGo25IBX2JdyysBckIRrh1RRIANeiF2ntyyhXkPXQAU2NkIj8DLcMrAeJufnwG/z0NaRMPyDtfRHVJn1D9EDTIEwHicgwuFXCqjHbY8yHFbAzbsZvyMNv59WeRObaF1Fs0ndFHzT9DInYCLhlozNiXeh0kUMR/dDWg1khSq8hK31R6atYeyAPTV9CqmAEstQrEKVtYSKEalexjkERmqZCKq42IF2YHaI0CCFUW0GOg4FyqscckIiNRBaycBhEaVWUoKkPUzAIn+N1vFplr+AlvA+zGivIpTARpGasAYnQkIwMx9WQMtwFvw3BsZgTElMroBj1gFwNG2GUw2GQiPyCNNeLoyFlGgSvbFwHSYAVUIpyQO5H2Jm4FRKBz5HGSvgcC0ECaINX70MSYgUUo9qDPIxK9gGkwl5N2VA04VmsAAloYeThloGN0zggnwcckFehqRdToa0ec1X5wYp5tKIN7Q5tjpdwngec513etx3wfB/n20zFGPyKl3EWVoKEaHWYcKsb00Gcsr4HeROaerABBIOgrRlrQirgMMUdmFmzC2y41QQB0rgH0a8gn0NTN9aHOLwLbTkcDAnZGijBrVZIBu2Nfrg1GQLUVpDvoakVy0EGcAOsmGzeO+CWjZ0hGbOPjwGZBKlt0vXPH2/G0hAXRyAXg837YHj1GSRjtoIFt6ZkeQVZH4Jh0DQJ80B8WAct0NaAOSLcqJewCSRDVoYBtzqzPCBboBGaxmEuiMJcaKzi5n1pFOHVVMwFyYg50Au3DNRlcZNuoQ2aGiABfFTFe97r4acpWA6SEU3w6o0sriDahmI6SED3wIYmK4TN+9HwWwHPYWFIyn0Fr0xclbkBUfQTJETHoFCFzfsYaCpgKO7GLpgfkjLnwG9jcTs2xeyoDQh9C6mAjdAObcMCbN63gYly6kcB7ZiMMRhcpkEer4PjsuO8y8cZil+wAkRhOvRAk4U+tGIixmHkAF83nF+nyzEGent/7wdgEBpgRTUgH0IqaD6MhrbmABvHJ5HmtoIovV57wpS+NyER+TLizfv3SGMGNoMozYXu2oD471lIxB6FHeE97z8hbZllDQhwIuzagHj3CKRKTkcR2t6DlOF52LUVBMAttQGJ/3/+uA26oG0oZoMo7Y8m1AYEuAAF1AbEkYVrIDGxOMZFvHm/Ek0ZvorltCr+gJXmAfkKfjJxHiSGfoS2PI6BlGkffIpWmEhSFjaHhGQ7fIUepKmvnA/rsAB+2XAc28jjVEiMPQcTNkxYDs7vByAq4RJIQGvicryDejShCzkUUHJ+Hc5jj8te55zH8DgP2ChiE0jIZsTeeBS/YRI6kUMBBiwPpq/vy/F2Cqb/3wMxG8I/C2FN1P3XGqhzWAtLQBJgBayJOh/WwKZYE1IB02FeLIYVBv75cgzURWx1TA9RCf5zWAV1CbEmFvon4llfDMkLeyoAAAAASUVORK5CYII=;" vertex="1" parent="3d76a8aef4d5c911-1">
          <mxGeometry x="10.48366812227074" y="15.23" width="200" height="51" as="geometry" />
        </mxCell>
        <mxCell id="l2089S-du-5APALcaX4G-5" value="Store" style="text;html=1;resizable=0;autosize=1;align=center;verticalAlign=middle;points=[];fillColor=none;strokeColor=none;rounded=0;labelBackgroundColor=#233249;fontColor=#FFFFFF;fontSize=33;" vertex="1" parent="3d76a8aef4d5c911-1">
          <mxGeometry x="220.9606986899563" y="11.676666666666666" width="90" height="50" as="geometry" />
        </mxCell>
        <mxCell id="l2089S-du-5APALcaX4G-6" value="Sale" style="text;html=1;resizable=0;autosize=1;align=center;verticalAlign=middle;points=[];fillColor=none;strokeColor=none;rounded=0;labelBackgroundColor=#233249;fontColor=#FFFFFF;fontSize=33;" vertex="1" parent="3d76a8aef4d5c911-1">
          <mxGeometry x="610.0037554585152" y="15" width="80" height="50" as="geometry" />
        </mxCell>
        <mxCell id="l2089S-du-5APALcaX4G-7" value="News" style="text;html=1;resizable=0;autosize=1;align=center;verticalAlign=middle;points=[];fillColor=none;strokeColor=none;rounded=0;labelBackgroundColor=#233249;fontColor=#FFFFFF;fontSize=33;" vertex="1" parent="3d76a8aef4d5c911-1">
          <mxGeometry x="411.7903930131004" y="13.776666666666666" width="100" height="50" as="geometry" />
        </mxCell>
        <mxCell id="l2089S-du-5APALcaX4G-11" value="" style="html=1;shadow=0;dashed=0;shape=mxgraph.bootstrap.rect;fillColor=#233249;strokeColor=none;whiteSpace=wrap;rounded=0;fontSize=12;fontColor=#000000;align=center;" vertex="1" parent="1">
          <mxGeometry x="44" y="1440" width="1150" height="80" as="geometry" />
        </mxCell>
        <mxCell id="l2089S-du-5APALcaX4G-12" value="" style="html=1;shadow=0;dashed=0;fillColor=#EA5145;strokeColor=none;shape=mxgraph.bootstrap.rect;fontColor=#999999;fontSize=14;whiteSpace=wrap;" vertex="1" parent="l2089S-du-5APALcaX4G-11">
          <mxGeometry width="220.9606986899563" height="80" as="geometry" />
        </mxCell>
        <mxCell id="l2089S-du-5APALcaX4G-16" value="" style="shape=image;verticalLabelPosition=bottom;labelBackgroundColor=default;verticalAlign=top;aspect=fixed;imageAspect=0;image=data:image/png,iVBORw0KGgoAAAANSUhEUgAAAMgAAAAzCAYAAADSDUdEAAAHQ0lEQVR4Ae3dA5Dk6hbA8VPv2rbtubZt27Zt27Zt27ZWM7P2ztaYrWD2/R9vbtVUktNJp4P+V/120hnj1Ndfo1amTZv2BdyysAkkppZGKzT9BgnR5rgBn2AEWpGDgUpnIIdWNOItnIZFIBUyAnHLRgFdmIAf8TAOwGyQcvgZEBsbQ2JoPXRB06+QEByG79AJC3GrgAacDgnZcCSpPtTjSswR9oBYMR2QDdENTV9AAvgHrkMLktQUHJDhAXHWizewWJpXkJ2Rh6ZPIQEcgRYktX68lOKrWNryuCONK8j+yEPTq5AA3kRa+jj9K4iqYZjPbUA+T9AKchQMaHoFEsAfSFv311aQv9WMJZK+gpwOA5oeggTwK9JYEXW1FeRvtWDBpO5BLoINTfdBAngRae5HSJnGIY0NT+IKcgss+M3GlZAAdoaFcsqhCcPwBV7Hw3gQD+BBAAOf4zI49nifR/EmvsMYdKEffitgGUgZnsIoNAygHg0B1Ps8X+94ORJT0I4cbJTbw0laQe6GJhuXQwIaB01teAP7YS5IFUyHnfCNYrhvg6TMfNged+B39EFTHkskYQV5CpoMnAIJ6CT4rRuXQmLmVBiKRxSk2Zy4CZ3w21vaFWQTSIRegKYSjo34TrCxmBcSU6/CqxZIRsyCb+GnXswY1xXkA2gq4EBICFZCCV5NwgyQGNsQBtzKYzZIhrwDP50XxwH5FJoK2BUSkjvhVREbQhKgC24ZWBOSMWPg1Y9x26T/BE292BISomGah6wkwFS4ZWJrSMbsDQtutcdpQH6Hph6sDwlZJ9wysS0kIcbCrX7sD8mgCXCrhJWqfRVrOjRCUzvqICFbEwbcaoYkyDgfA7IfJIOegFfHVHNAZsdIaGrF0pAKOApe/QBJkBa4ZWJLSIUsju1xNE7D5bgR1w/gBpfz8Hgf7/dzHl+Kd+HVTdV6RuE8mAhNk7EUpEJuh1cPQhJiOvTCrVLIq/E+eB2j0YUiLCS156uxB1kCk6FpEuaKwf0Gp0ESYn/YcCuHGSEBzItn0Y609UnUdxQuizZoGo25IBX2JdyysBckIRrh1RRIANeiF2ntyyhXkPXQAU2NkIj8DLcMrAeJufnwG/z0NaRMPyDtfRHVJn1D9EDTIEwHicgwuFXCqjHbY8yHFbAzbsZvyMNv59WeRObaF1Fs0ndFHzT9DInYCLhlozNiXeh0kUMR/dDWg1khSq8hK31R6atYeyAPTV9CqmAEstQrEKVtYSKEalexjkERmqZCKq42IF2YHaI0CCFUW0GOg4FyqscckIiNRBaycBhEaVWUoKkPUzAIn+N1vFplr+AlvA+zGivIpTARpGasAYnQkIwMx9WQMtwFvw3BsZgTElMroBj1gFwNG2GUw2GQiPyCNNeLoyFlGgSvbFwHSYAVUIpyQO5H2Jm4FRKBz5HGSvgcC0ECaINX70MSYgUUo9qDPIxK9gGkwl5N2VA04VmsAAloYeThloGN0zggnwcckFehqRdToa0ec1X5wYp5tKIN7Q5tjpdwngec513etx3wfB/n20zFGPyKl3EWVoKEaHWYcKsb00Gcsr4HeROaerABBIOgrRlrQirgMMUdmFmzC2y41QQB0rgH0a8gn0NTN9aHOLwLbTkcDAnZGijBrVZIBu2Nfrg1GQLUVpDvoakVy0EGcAOsmGzeO+CWjZ0hGbOPjwGZBKlt0vXPH2/G0hAXRyAXg837YHj1GSRjtoIFt6ZkeQVZH4Jh0DQJ80B8WAct0NaAOSLcqJewCSRDVoYBtzqzPCBboBGaxmEuiMJcaKzi5n1pFOHVVMwFyYg50Au3DNRlcZNuoQ2aGiABfFTFe97r4acpWA6SEU3w6o0sriDahmI6SED3wIYmK4TN+9HwWwHPYWFIyn0Fr0xclbkBUfQTJETHoFCFzfsYaCpgKO7GLpgfkjLnwG9jcTs2xeyoDQh9C6mAjdAObcMCbN63gYly6kcB7ZiMMRhcpkEer4PjsuO8y8cZil+wAkRhOvRAk4U+tGIixmHkAF83nF+nyzEGent/7wdgEBpgRTUgH0IqaD6MhrbmABvHJ5HmtoIovV57wpS+NyER+TLizfv3SGMGNoMozYXu2oD471lIxB6FHeE97z8hbZllDQhwIuzagHj3CKRKTkcR2t6DlOF52LUVBMAttQGJ/3/+uA26oG0oZoMo7Y8m1AYEuAAF1AbEkYVrIDGxOMZFvHm/Ek0ZvorltCr+gJXmAfkKfjJxHiSGfoS2PI6BlGkffIpWmEhSFjaHhGQ7fIUepKmvnA/rsAB+2XAc28jjVEiMPQcTNkxYDs7vByAq4RJIQGvicryDejShCzkUUHJ+Hc5jj8te55zH8DgP2ChiE0jIZsTeeBS/YRI6kUMBBiwPpq/vy/F2Cqb/3wMxG8I/C2FN1P3XGqhzWAtLQBJgBayJOh/WwKZYE1IB02FeLIYVBv75cgzURWx1TA9RCf5zWAV1CbEmFvon4llfDMkLeyoAAAAASUVORK5CYII=;" vertex="1" parent="l2089S-du-5APALcaX4G-11">
          <mxGeometry x="10.043668122270741" y="16" width="200" height="51" as="geometry" />
        </mxCell>
        <mxCell id="l2089S-du-5APALcaX4G-21" value="&lt;font style=&quot;font-size: 24px;&quot;&gt;About&lt;/font&gt;" style="text;html=1;resizable=0;autosize=1;align=center;verticalAlign=middle;points=[];fillColor=none;strokeColor=none;rounded=0;labelBackgroundColor=#233249;fontSize=24;fontColor=#FFFFFF;" vertex="1" parent="l2089S-du-5APALcaX4G-11">
          <mxGeometry x="246" y="6" width="80" height="30" as="geometry" />
        </mxCell>
        <mxCell id="l2089S-du-5APALcaX4G-22" value="&lt;font style=&quot;font-size: 24px&quot;&gt;Contact&lt;/font&gt;" style="text;html=1;resizable=0;autosize=1;align=center;verticalAlign=middle;points=[];fillColor=none;strokeColor=none;rounded=0;labelBackgroundColor=#233249;fontSize=24;fontColor=#FFFFFF;" vertex="1" parent="l2089S-du-5APALcaX4G-11">
          <mxGeometry x="346" y="6" width="100" height="30" as="geometry" />
        </mxCell>
      </root>
    </mxGraphModel>
  </diagram>
</mxfile>
